<?xml version="1.0" standalone="no"?>
<!DOCTYPE svg PUBLIC "-//W3C//DTD SVG 20010904//EN"
 "http://www.w3.org/TR/2001/REC-SVG-20010904/DTD/svg10.dtd">
<svg version="1.0" xmlns="http://www.w3.org/2000/svg"
 width="692.000000pt" height="692.000000pt" viewBox="0 0 692.000000 692.000000"
 preserveAspectRatio="xMidYMid meet">
<metadata>
Created by potrace 1.14, written by Peter Selinger 2001-2017
</metadata>
<g transform="translate(0.000000,692.000000) scale(0.100000,-0.100000)"
fill="#000000" stroke="none">
<path d="M3367 6613 c-1 -1 -45 -4 -97 -7 -183 -11 -296 -26 -460 -61 -14 -3
-34 -7 -45 -9 -11 -2 -40 -9 -65 -16 -25 -7 -52 -13 -60 -15 -8 -2 -26 -8 -40
-13 -14 -5 -27 -9 -30 -9 -3 0 -30 -8 -60 -17 -79 -25 -80 -25 -88 -27 -4 -1
-29 -11 -57 -24 -27 -12 -54 -23 -60 -25 -49 -14 -167 -67 -295 -133 -63 -33
-130 -67 -147 -76 -18 -8 -33 -19 -33 -23 0 -4 -5 -8 -10 -8 -6 0 -23 -8 -38
-18 -15 -11 -81 -54 -147 -98 -66 -43 -122 -82 -125 -85 -3 -3 -32 -25 -64
-49 -57 -41 -149 -117 -226 -184 -105 -93 -323 -321 -390 -407 -14 -18 -29
-37 -35 -43 -48 -52 -182 -243 -270 -386 -216 -350 -403 -817 -460 -1150 -3
-19 -8 -42 -10 -50 -2 -8 -6 -33 -10 -55 -3 -22 -8 -53 -11 -69 -3 -16 -7 -50
-9 -75 -3 -25 -8 -77 -12 -116 -12 -111 -5 -615 7 -615 3 0 7 -15 8 -32 2 -18
10 -62 18 -98 9 -36 17 -72 19 -80 2 -8 4 -15 5 -15 1 0 3 -7 5 -15 6 -28 46
-125 77 -185 58 -113 158 -225 271 -303 49 -35 217 -116 262 -128 6 -1 44 -11
85 -22 41 -12 94 -23 118 -26 24 -3 46 -7 50 -10 14 -8 192 -19 317 -19 112
-1 200 4 355 18 145 13 403 71 601 134 l90 29 32 -33 c18 -18 75 -79 127 -135
52 -57 112 -121 133 -144 22 -22 62 -66 90 -97 29 -30 106 -113 173 -185 66
-71 136 -147 155 -169 75 -86 329 -335 409 -401 47 -38 90 -73 96 -79 34 -32
311 -210 379 -243 77 -38 255 -109 292 -115 10 -2 38 -9 63 -16 25 -7 53 -15
62 -17 10 -2 26 -6 37 -8 10 -2 34 -7 52 -10 19 -3 45 -8 59 -10 154 -27 534
-40 680 -23 117 14 147 18 200 27 30 5 71 12 90 15 19 3 43 8 52 11 9 3 25 7
35 9 10 2 33 8 51 14 18 5 35 10 37 10 34 0 313 101 404 145 30 14 61 26 68
26 7 0 13 4 13 9 0 5 10 13 23 17 29 9 211 123 215 135 2 5 8 9 13 9 8 0 107
66 119 80 3 3 30 23 60 45 30 22 57 42 60 45 3 3 26 22 51 42 66 53 146 132
207 206 43 52 50 65 39 77 -10 12 -18 7 -52 -33 -80 -94 -212 -220 -300 -285
-27 -20 -54 -40 -60 -45 -5 -4 -28 -19 -50 -32 -22 -13 -42 -27 -45 -30 -5 -6
-172 -88 -230 -113 -95 -41 -267 -87 -415 -112 -166 -27 -550 -25 -653 4 -17
5 -33 7 -36 4 -2 -3 -11 -1 -18 3 -7 4 -19 9 -28 9 -94 9 -329 93 -480 173
-84 44 -250 148 -260 162 -3 4 -10 9 -17 11 -57 19 -492 436 -818 783 -66 71
-142 152 -170 181 -63 66 -231 248 -276 298 -19 21 -54 59 -79 85 -45 48 -223
239 -276 298 -32 35 -199 215 -254 274 -19 20 -73 79 -120 130 -93 101 -250
260 -296 300 -95 82 -200 142 -267 154 -78 14 -109 -8 -232 -169 -33 -43 -65
-83 -70 -89 -6 -6 -20 -24 -32 -41 -17 -24 -175 -226 -211 -270 -4 -5 -46 -59
-92 -120 -47 -60 -92 -118 -101 -128 -9 -10 -30 -45 -46 -78 l-30 -60 -23 53
c-12 29 -24 59 -25 68 -2 8 -4 16 -5 18 -2 1 -3 5 -4 10 -1 4 -5 16 -9 27 -3
11 -8 31 -11 45 -2 14 -7 36 -10 50 -42 179 -48 596 -12 810 2 14 7 50 11 80
4 30 9 64 10 75 2 11 7 40 10 64 3 25 8 48 10 51 3 4 7 22 9 41 3 19 10 54 17
79 6 25 12 52 14 60 2 8 8 35 15 60 7 25 14 56 17 69 2 14 7 29 11 35 3 6 7
17 8 24 1 6 15 51 30 100 15 48 28 89 29 92 3 19 115 310 141 367 13 28 24 55
24 58 0 10 154 314 189 373 17 29 31 57 31 62 0 4 3 10 8 12 4 2 26 35 49 73
24 39 65 102 93 140 27 39 55 79 62 89 7 10 52 67 99 125 120 148 204 238 344
366 60 55 210 165 225 165 6 0 10 4 10 8 0 5 48 33 108 62 59 28 114 56 122
60 30 15 199 60 238 63 21 2 43 6 48 9 5 2 65 4 134 3 352 -5 609 -94 790
-274 91 -90 143 -174 200 -315 39 -100 84 -305 95 -441 6 -64 5 -373 0 -445
-3 -30 -6 -80 -9 -110 -6 -78 -16 -166 -26 -230 -5 -30 -12 -71 -15 -90 -3
-19 -8 -48 -11 -63 -3 -16 -7 -38 -9 -50 -2 -12 -6 -33 -9 -47 -4 -14 -9 -38
-12 -55 -3 -16 -12 -59 -20 -95 -9 -36 -17 -73 -19 -82 -28 -131 -164 -569
-216 -693 -6 -16 -13 -34 -15 -40 -1 -5 -14 -37 -29 -70 -14 -33 -31 -73 -37
-90 -17 -45 -160 -324 -191 -372 -15 -24 -27 -47 -27 -52 0 -5 -3 -11 -7 -13
-5 -1 -29 -34 -54 -73 -26 -38 -78 -110 -118 -159 -39 -50 -67 -94 -63 -98 7
-7 79 26 167 76 65 38 240 159 255 177 3 3 34 30 70 60 123 102 311 302 403
428 27 36 52 68 55 71 4 3 12 12 17 21 6 9 32 50 59 90 144 217 275 468 366
704 67 175 138 404 164 535 3 14 8 36 11 50 7 29 12 53 19 95 2 17 7 44 10 60
7 41 22 164 32 265 7 69 7 390 0 450 -14 112 -17 136 -20 150 -1 8 -6 33 -10
55 -12 60 -53 196 -76 248 -12 26 -20 50 -20 53 1 4 -3 10 -8 13 -5 3 -19 24
-30 46 -67 131 -217 265 -382 342 -91 43 -229 88 -295 98 -19 3 -65 10 -125
20 -53 9 -367 24 -373 18z m-2016 -3758 c72 -12 208 -93 307 -183 87 -78 215
-209 357 -366 6 -6 57 -62 114 -124 117 -127 117 -119 11 -153 -124 -39 -197
-48 -360 -43 -152 4 -180 6 -237 18 -15 4 -38 8 -51 11 -78 14 -146 39 -211
74 -41 23 -76 41 -78 41 -8 0 -107 84 -121 102 -7 9 -19 24 -28 32 -26 27 -63
120 -67 170 -11 124 66 266 206 381 34 28 104 57 118 49 3 -2 21 -6 40 -9z"/>
</g>
</svg>
